<svg width="246" height="48" viewBox="0 0 246 48" fill="none" xmlns="http://www.w3.org/2000/svg">
<path d="M12.98 4.94C19.22 4.94 24 6.06 27.32 8.3C30.64 10.5 32.3 13.94 32.3 18.62C32.3 21.54 31.62 23.92 30.26 25.76C28.94 27.56 27.02 28.98 24.5 30.02C25.34 31.06 26.22 32.26 27.14 33.62C28.06 34.94 28.96 36.34 29.84 37.82C30.76 39.26 31.64 40.78 32.48 42.38C33.32 43.94 34.1 45.48 34.82 47H24.32C23.56 45.64 22.78 44.26 21.98 42.86C21.22 41.46 20.42 40.1 19.58 38.78C18.78 37.46 17.98 36.22 17.18 35.06C16.38 33.86 15.58 32.78 14.78 31.82H10.16V47H0.8V6.02C2.84 5.62 4.94 5.34 7.1 5.18C9.3 5.02 11.26 4.94 12.98 4.94ZM13.52 12.92C12.84 12.92 12.22 12.94 11.66 12.98C11.14 13.02 10.64 13.06 10.16 13.1V24.38H12.8C16.32 24.38 18.84 23.94 20.36 23.06C21.88 22.18 22.64 20.68 22.64 18.56C22.64 16.52 21.86 15.08 20.3 14.24C18.78 13.36 16.52 12.92 13.52 12.92ZM37.1961 31.46C37.1961 28.66 37.6161 26.22 38.4561 24.14C39.3361 22.02 40.4761 20.26 41.8761 18.86C43.2761 17.46 44.8761 16.4 46.6761 15.68C48.5161 14.96 50.3961 14.6 52.3161 14.6C56.7961 14.6 60.3361 15.98 62.9361 18.74C65.5361 21.46 66.8361 25.48 66.8361 30.8C66.8361 31.32 66.8161 31.9 66.7761 32.54C66.7361 33.14 66.6961 33.68 66.6561 34.16H46.3761C46.5761 36 47.4361 37.46 48.9561 38.54C50.4761 39.62 52.5161 40.16 55.0761 40.16C56.7161 40.16 58.3161 40.02 59.8761 39.74C61.4761 39.42 62.7761 39.04 63.7761 38.6L64.9761 45.86C64.4961 46.1 63.8561 46.34 63.0561 46.58C62.2561 46.82 61.3561 47.02 60.3561 47.18C59.3961 47.38 58.3561 47.54 57.2361 47.66C56.1161 47.78 54.9961 47.84 53.8761 47.84C51.0361 47.84 48.5561 47.42 46.4361 46.58C44.3561 45.74 42.6161 44.6 41.2161 43.16C39.8561 41.68 38.8361 39.94 38.1561 37.94C37.5161 35.94 37.1961 33.78 37.1961 31.46ZM58.1961 28.04C58.1561 27.28 58.0161 26.54 57.7761 25.82C57.5761 25.1 57.2361 24.46 56.7561 23.9C56.3161 23.34 55.7361 22.88 55.0161 22.52C54.3361 22.16 53.4761 21.98 52.4361 21.98C51.4361 21.98 50.5761 22.16 49.8561 22.52C49.1361 22.84 48.5361 23.28 48.0561 23.84C47.5761 24.4 47.1961 25.06 46.9161 25.82C46.6761 26.54 46.4961 27.28 46.3761 28.04H58.1961Z" fill="#2069E0"/>
<path d="M82.1952 26.18C82.1952 28.22 82.4352 30.06 82.9152 31.7C83.4352 33.34 84.1552 34.76 85.0752 35.96C86.0352 37.12 87.1952 38.02 88.5552 38.66C89.9152 39.3 91.4752 39.62 93.2352 39.62C94.9552 39.62 96.4952 39.3 97.8552 38.66C99.2552 38.02 100.415 37.12 101.335 35.96C102.295 34.76 103.015 33.34 103.495 31.7C104.015 30.06 104.275 28.22 104.275 26.18C104.275 24.14 104.015 22.3 103.495 20.66C103.015 18.98 102.295 17.56 101.335 16.4C100.415 15.2 99.2552 14.28 97.8552 13.64C96.4952 13 94.9552 12.68 93.2352 12.68C91.4752 12.68 89.9152 13.02 88.5552 13.7C87.1952 14.34 86.0352 15.26 85.0752 16.46C84.1552 17.62 83.4352 19.04 82.9152 20.72C82.4352 22.36 82.1952 24.18 82.1952 26.18ZM113.935 26.18C113.935 29.74 113.395 32.88 112.315 35.6C111.275 38.28 109.835 40.54 107.995 42.38C106.155 44.18 103.955 45.54 101.395 46.46C98.8752 47.38 96.1552 47.84 93.2352 47.84C90.3952 47.84 87.7152 47.38 85.1952 46.46C82.6752 45.54 80.4752 44.18 78.5952 42.38C76.7152 40.54 75.2352 38.28 74.1552 35.6C73.0752 32.88 72.5352 29.74 72.5352 26.18C72.5352 22.62 73.0952 19.5 74.2152 16.82C75.3352 14.1 76.8352 11.82 78.7152 9.98C80.6352 8.14 82.8352 6.76 85.3152 5.84C87.8352 4.92 90.4752 4.46 93.2352 4.46C96.0752 4.46 98.7552 4.92 101.275 5.84C103.795 6.76 105.995 8.14 107.875 9.98C109.755 11.82 111.235 14.1 112.315 16.82C113.395 19.5 113.935 22.62 113.935 26.18ZM134.818 0.439999C136.498 0.439999 138.038 0.619999 139.438 0.979999C140.838 1.3 141.918 1.62 142.678 1.94L140.938 9.08C140.138 8.72 139.258 8.46 138.298 8.3C137.378 8.1 136.518 8 135.718 8C134.638 8 133.718 8.16 132.958 8.48C132.238 8.76 131.658 9.16 131.218 9.68C130.818 10.2 130.518 10.82 130.318 11.54C130.158 12.26 130.078 13.04 130.078 13.88V15.44H141.118V22.88H130.078V47H121.138V13.76C121.138 9.68 122.278 6.44 124.558 4.04C126.878 1.64 130.298 0.439999 134.818 0.439999ZM159.958 0.439999C161.638 0.439999 163.018 0.579998 164.098 0.859997C165.218 1.14 166.158 1.44 166.918 1.76L165.358 8.78C164.718 8.5 163.998 8.3 163.198 8.18C162.438 8.06 161.658 8 160.858 8C159.778 8 158.858 8.16 158.098 8.48C157.378 8.76 156.798 9.16 156.358 9.68C155.958 10.2 155.658 10.82 155.458 11.54C155.298 12.26 155.218 13.04 155.218 13.88V15.44H166.258V22.88H155.218V47H146.278V13.76C146.278 9.68 147.418 6.44 149.698 4.04C152.018 1.64 155.438 0.439999 159.958 0.439999ZM180.358 47H171.418V15.44H180.358V47ZM181.198 6.32C181.198 7.96 180.658 9.26 179.578 10.22C178.538 11.14 177.298 11.6 175.858 11.6C174.418 11.6 173.158 11.14 172.078 10.22C171.038 9.26 170.518 7.96 170.518 6.32C170.518 4.68 171.038 3.4 172.078 2.48C173.158 1.52 174.418 1.04 175.858 1.04C177.298 1.04 178.538 1.52 179.578 2.48C180.658 3.4 181.198 4.68 181.198 6.32ZM187.255 31.22C187.255 28.94 187.615 26.8 188.335 24.8C189.095 22.76 190.175 21 191.575 19.52C192.975 18 194.675 16.8 196.675 15.92C198.675 15.04 200.955 14.6 203.515 14.6C205.195 14.6 206.735 14.76 208.135 15.08C209.535 15.36 210.895 15.78 212.215 16.34L210.355 23.48C209.515 23.16 208.595 22.88 207.595 22.64C206.595 22.4 205.475 22.28 204.235 22.28C201.595 22.28 199.615 23.1 198.295 24.74C197.015 26.38 196.375 28.54 196.375 31.22C196.375 34.06 196.975 36.26 198.175 37.82C199.415 39.38 201.555 40.16 204.595 40.16C205.675 40.16 206.835 40.06 208.075 39.86C209.315 39.66 210.455 39.34 211.495 38.9L212.755 46.22C211.715 46.66 210.415 47.04 208.855 47.36C207.295 47.68 205.575 47.84 203.695 47.84C200.815 47.84 198.335 47.42 196.255 46.58C194.175 45.7 192.455 44.52 191.095 43.04C189.775 41.56 188.795 39.82 188.155 37.82C187.555 35.78 187.255 33.58 187.255 31.22ZM215.731 31.46C215.731 28.66 216.151 26.22 216.991 24.14C217.871 22.02 219.011 20.26 220.411 18.86C221.811 17.46 223.411 16.4 225.211 15.68C227.051 14.96 228.931 14.6 230.851 14.6C235.331 14.6 238.871 15.98 241.471 18.74C244.071 21.46 245.371 25.48 245.371 30.8C245.371 31.32 245.351 31.9 245.311 32.54C245.271 33.14 245.231 33.68 245.191 34.16H224.911C225.111 36 225.971 37.46 227.491 38.54C229.011 39.62 231.051 40.16 233.611 40.16C235.251 40.16 236.851 40.02 238.411 39.74C240.011 39.42 241.311 39.04 242.311 38.6L243.511 45.86C243.031 46.1 242.391 46.34 241.591 46.58C240.791 46.82 239.891 47.02 238.891 47.18C237.931 47.38 236.891 47.54 235.771 47.66C234.651 47.78 233.531 47.84 232.411 47.84C229.571 47.84 227.091 47.42 224.971 46.58C222.891 45.74 221.151 44.6 219.751 43.16C218.391 41.68 217.371 39.94 216.691 37.94C216.051 35.94 215.731 33.78 215.731 31.46ZM236.731 28.04C236.691 27.28 236.551 26.54 236.311 25.82C236.111 25.1 235.771 24.46 235.291 23.9C234.851 23.34 234.271 22.88 233.551 22.52C232.871 22.16 232.011 21.98 230.971 21.98C229.971 21.98 229.111 22.16 228.391 22.52C227.671 22.84 227.071 23.28 226.591 23.84C226.111 24.4 225.731 25.06 225.451 25.82C225.211 26.54 225.031 27.28 224.911 28.04H236.731Z" fill="white"/>
</svg>
